<svg version="1.1" id="Layer_1" xmlns="http://www.w3.org/2000/svg" xmlns:xlink="http://www.w3.org/1999/xlink" x="0px" y="0px"
	 width="100%" viewBox="0 0 131 93" enable-background="new 0 0 131 93" xml:space="preserve">
<path fill="#F7F7F8" opacity="1.000000" stroke="none" 
	d="
M88.000000,94.000000 
	C58.666668,94.000000 29.833334,94.000000 1.000000,94.000000 
	C1.000000,63.000000 1.000000,32.000000 1.000000,1.000000 
	C44.666668,1.000000 88.333336,1.000000 132.000000,1.000000 
	C132.000000,32.000000 132.000000,63.000000 132.000000,94.000000 
	C117.500000,94.000000 103.000000,94.000000 88.000000,94.000000 
M77.860855,35.043114 
	C84.808922,33.074318 91.768539,31.144552 98.692245,29.093506 
	C99.699043,28.795256 100.534035,27.917038 101.448532,27.307192 
	C100.419647,26.798512 99.363342,25.801960 98.366203,25.858011 
	C90.077721,26.323954 82.336952,28.377913 75.587242,34.667778 
	C75.422516,35.330482 75.257797,35.993187 74.761604,37.989445 
	C76.164497,36.277496 76.638817,35.698696 77.860855,35.043114 
M17.931692,30.341707 
	C13.869715,30.537457 13.527746,33.668613 13.132934,36.603409 
	C11.537632,48.461884 10.040005,60.333466 8.463009,72.194450 
	C7.251637,81.305489 9.498565,83.189705 18.504143,81.814964 
	C31.099016,79.892311 43.777027,78.514252 56.521664,76.890160 
	C57.927834,83.747513 61.271542,87.660492 67.408112,87.883926 
	C74.213936,88.131737 78.036224,84.124092 79.493553,76.746727 
	C93.146217,78.548782 106.463104,80.268425 119.767494,82.079788 
	C125.790863,82.899857 128.509460,80.665199 127.810890,74.779465 
	C126.263290,61.740356 124.627739,48.708408 122.722740,35.718315 
	C122.414619,33.617264 120.537209,31.746342 119.385185,29.769045 
	C118.964859,30.017368 118.544540,30.265690 118.124222,30.514013 
	C118.124222,32.666332 118.124222,34.818653 117.615959,36.968285 
	C117.446663,36.974831 117.277367,36.981377 116.926811,36.072975 
	C116.899574,32.247005 117.282158,28.357330 116.700798,24.617502 
	C116.314247,22.130878 114.550667,19.858316 113.403450,17.489939 
	C112.813263,17.716965 112.223076,17.943989 111.632889,18.171015 
	C111.632889,31.713846 111.632889,45.256680 111.632889,59.107494 
	C95.296585,56.305496 81.589378,60.076614 70.379028,72.609520 
	C73.799858,74.907349 75.108170,77.987877 71.722160,80.306236 
	C69.948959,81.520317 65.997841,81.560410 64.238441,80.359993 
	C60.825867,78.031647 62.272461,74.959785 65.511940,72.611664 
	C54.429806,59.808846 40.463753,56.409542 24.024910,59.083431 
	C24.024910,44.983925 24.024910,31.514565 24.024910,18.045202 
	C23.476530,17.880682 22.928148,17.716164 22.379768,17.551643 
	C21.304785,19.884758 19.915537,22.132652 19.252560,24.577492 
	C18.705427,26.595140 19.017637,28.845819 18.610313,30.940489 
	C18.610313,30.940489 18.269182,30.974426 17.931692,30.341707 
M88.703812,55.167511 
	C87.869743,55.533279 87.035683,55.899048 86.201614,56.264816 
	C86.262169,56.465557 86.322723,56.666302 86.383278,56.867043 
	C93.695549,56.368263 101.007820,55.869480 108.594391,55.351990 
	C108.594391,40.347633 108.594391,25.144327 108.594391,9.700572 
	C92.133492,8.104462 77.993637,11.570200 67.952866,25.888090 
	C57.802372,11.285930 43.610577,8.134780 27.489267,9.711710 
	C27.489267,25.327124 27.489267,40.545586 27.489267,55.187645 
	C34.948650,55.866085 41.983829,56.505939 49.653263,57.203484 
	C44.202198,52.252071 37.402599,53.096771 31.397423,51.489731 
	C31.397423,45.260765 31.397425,39.268417 31.397425,33.276066 
	C31.397425,27.198032 31.397423,21.120001 31.397423,13.480640 
	C39.126205,15.158357 46.038216,16.033182 52.499786,18.231815 
	C59.395824,20.578283 64.268257,25.932495 67.764534,32.527657 
	C78.013016,18.673586 92.214958,12.168205 104.278290,15.507052 
	C104.278290,27.597788 104.278290,39.667946 104.278290,51.217121 
	C99.059380,52.530937 94.263954,53.738140 88.703812,55.167511 
M99.787048,49.570866 
	C100.871498,49.424416 101.955948,49.277966 103.040390,49.131512 
	C102.391541,48.493134 101.742691,47.854752 101.093842,47.216370 
	C88.880028,46.099148 74.940079,53.129021 71.970192,62.779182 
	C80.072296,55.248817 88.796791,50.842770 99.787048,49.570866 
M57.677761,53.762745 
	C47.797516,47.694908 39.767479,45.686527 34.105988,48.522816 
	C45.085468,50.495506 55.223671,54.303761 63.517467,62.136234 
	C63.822880,61.729652 64.128296,61.323071 64.433708,60.916492 
	C62.373421,58.677410 60.313141,56.438332 57.677761,53.762745 
M76.195290,43.902679 
	C82.739632,39.252319 90.082161,36.980892 98.036766,36.326683 
	C99.321487,36.221020 100.526817,35.149967 101.768845,34.525162 
	C101.508522,34.015903 101.248192,33.506645 100.987862,32.997383 
	C91.421997,32.694408 82.763718,35.197441 75.512070,41.798363 
	C75.108696,42.165539 75.505424,43.411682 76.195290,43.902679 
M35.099964,39.993874 
	C35.370430,41.051018 35.585831,43.012928 35.919407,43.033234 
	C44.689526,43.567043 52.588112,46.686329 60.181938,50.821350 
	C60.288151,50.879185 60.645237,50.476280 61.312325,49.954094 
	C54.291138,42.675724 45.558147,40.186230 35.099964,39.993874 
M100.940414,42.894737 
	C102.510689,39.551247 100.200020,39.691559 98.109001,39.841335 
	C90.150879,40.411358 82.856674,42.820950 76.629471,47.956795 
	C75.902946,48.555992 75.505501,49.554188 75.487137,49.581345 
	C83.513557,47.489677 91.839600,45.319931 100.940414,42.894737 
M56.825771,38.783192 
	C49.923691,34.559429 42.556980,32.380192 33.122849,33.269245 
	C37.339626,38.433586 42.716469,35.776817 46.641819,37.702534 
	C50.987831,39.834633 55.553177,41.519661 61.161800,43.878277 
	C59.546997,41.819584 58.512505,40.500729 56.825771,38.783192 
M56.241135,27.194092 
	C57.438656,27.808067 58.636181,28.422043 59.833702,29.036016 
	C60.079227,28.694616 60.324749,28.353218 60.570271,28.011818 
	C59.448185,26.977356 58.415241,25.820173 57.188847,24.929306 
	C51.336178,20.677872 44.598083,19.121531 37.522167,18.856106 
	C36.480392,18.817026 35.404137,19.697054 34.343830,20.151831 
	C35.358849,20.848362 36.282429,21.877882 37.404133,22.185886 
	C43.430466,23.840622 49.506088,25.315859 56.241135,27.194092 
M39.450008,25.855556 
	C37.752785,26.337687 36.055557,26.819817 34.358334,27.301947 
	C35.952721,27.955223 37.503803,28.758512 39.149624,29.233637 
	C44.076435,30.655930 49.038799,31.955420 53.990749,33.290001 
	C55.233749,33.625000 56.489742,33.911785 57.739761,34.220730 
	C53.155849,28.368189 46.787209,27.036425 39.450008,25.855556 
M80.384056,23.854418 
	C79.258522,24.716183 78.132988,25.577950 77.007454,26.439714 
	C78.516396,27.021481 79.732086,26.899384 80.908432,26.614716 
	C86.824638,25.183056 92.743538,23.758066 98.627937,22.203701 
	C99.666374,21.929398 100.545609,21.052414 101.498360,20.453745 
	C100.383270,19.892263 99.112816,18.661688 98.178482,18.878647 
	C92.416489,20.216621 86.730263,21.880941 80.384056,23.854418 
z"/>
<path fill="#11273A" opacity="1.000000" stroke="none" 
	d="
M118.124222,36.970974 
	C118.124222,34.818653 118.124222,32.666332 118.124222,30.514013 
	C118.544540,30.265690 118.964859,30.017368 119.385185,29.769045 
	C120.537209,31.746342 122.414619,33.617264 122.722740,35.718315 
	C124.627739,48.708408 126.263290,61.740356 127.810890,74.779465 
	C128.509460,80.665199 125.790863,82.899857 119.767494,82.079788 
	C106.463104,80.268425 93.146217,78.548782 79.493553,76.746727 
	C78.036224,84.124092 74.213936,88.131737 67.408112,87.883926 
	C61.271542,87.660492 57.927834,83.747513 56.521664,76.890160 
	C43.777027,78.514252 31.099016,79.892311 18.504143,81.814964 
	C9.498565,83.189705 7.251637,81.305489 8.463009,72.194450 
	C10.040005,60.333466 11.537632,48.461884 13.132934,36.603409 
	C13.527746,33.668613 13.869715,30.537457 17.988403,31.085052 
	C17.803577,35.395527 17.562038,38.962654 17.320499,42.529778 
	C17.863348,42.551178 18.406197,42.572575 18.949045,42.593975 
	C18.949045,38.727062 18.949045,34.860149 18.949045,30.993237 
	C19.017637,28.845819 18.705427,26.595140 19.252560,24.577492 
	C19.915537,22.132652 21.304785,19.884758 22.379768,17.551643 
	C22.928148,17.716164 23.476530,17.880682 24.024910,18.045202 
	C24.024910,31.514565 24.024910,44.983925 24.024910,59.083431 
	C40.463753,56.409542 54.429806,59.808846 65.511940,72.611664 
	C62.272461,74.959785 60.825867,78.031647 64.238441,80.359993 
	C65.997841,81.560410 69.948959,81.520317 71.722160,80.306236 
	C75.108170,77.987877 73.799858,74.907349 70.379028,72.609520 
	C81.589378,60.076614 95.296585,56.305496 111.632889,59.107494 
	C111.632889,45.256680 111.632889,31.713846 111.632889,18.171015 
	C112.223076,17.943989 112.813263,17.716965 113.403450,17.489939 
	C114.550667,19.858316 116.314247,22.130878 116.700798,24.617502 
	C117.282158,28.357330 116.899574,32.247005 116.930771,36.945961 
	C117.349655,46.563114 117.764587,55.307281 118.178101,64.021530 
	C115.424370,64.021530 113.032112,64.021530 109.885162,64.021530 
	C111.611954,65.069191 112.703255,65.731293 114.588371,66.875015 
	C106.510818,66.875015 99.425888,66.875015 92.340950,66.875015 
	C92.363098,67.005379 92.385254,67.135742 92.407402,67.266106 
	C100.199051,68.324448 107.990692,69.382797 115.782333,70.441147 
	C115.729767,71.023506 115.677200,71.605858 115.624634,72.188217 
	C110.333298,72.188217 105.041962,72.188217 99.750633,72.188217 
	C99.760460,72.358330 99.770287,72.528442 99.780113,72.698555 
	C107.096527,73.819557 114.412933,74.940559 122.622604,76.198425 
	C121.090637,62.839188 119.607430,49.905079 118.124222,36.970974 
M15.932370,55.286079 
	C15.129666,62.149303 14.326962,69.012527 13.472794,76.315781 
	C21.434566,75.039513 28.506390,73.905907 35.578213,72.772301 
	C35.548153,72.528618 35.518089,72.284943 35.488029,72.041260 
	C30.074184,72.041260 24.660341,72.041260 19.246498,72.041260 
	C19.223150,71.534073 19.199802,71.026894 19.176455,70.519707 
	C26.970066,69.452644 34.763676,68.385582 42.557285,67.318520 
	C42.546707,67.102013 42.536129,66.885498 42.525551,66.668983 
	C35.532497,66.668983 28.539444,66.668983 20.768873,66.668983 
	C22.729790,65.811096 24.092205,65.215050 26.567684,64.132050 
	C22.962969,64.132050 20.519505,64.132050 17.763630,64.132050 
	C18.175919,57.023891 18.571833,50.198044 18.967747,43.372196 
	C18.360615,43.345581 17.753483,43.318962 17.146349,43.292347 
	C16.765591,46.989857 16.384830,50.687363 15.932370,55.286079 
z"/>
<path fill="#1B2F42" opacity="1.000000" stroke="none" 
	d="
M89.086166,55.056427 
	C94.263954,53.738140 99.059380,52.530937 104.278290,51.217121 
	C104.278290,39.667946 104.278290,27.597788 104.278290,15.507052 
	C92.214958,12.168205 78.013016,18.673586 67.764534,32.527657 
	C64.268257,25.932495 59.395824,20.578283 52.499786,18.231815 
	C46.038216,16.033182 39.126205,15.158357 31.397423,13.480640 
	C31.397423,21.120001 31.397425,27.198032 31.397425,33.276066 
	C31.397425,39.268417 31.397423,45.260765 31.397423,51.489731 
	C37.402599,53.096771 44.202198,52.252071 49.653263,57.203484 
	C41.983829,56.505939 34.948650,55.866085 27.489267,55.187645 
	C27.489267,40.545586 27.489267,25.327124 27.489267,9.711710 
	C43.610577,8.134780 57.802372,11.285930 67.952866,25.888090 
	C77.993637,11.570200 92.133492,8.104462 108.594391,9.700572 
	C108.594391,25.144327 108.594391,40.347633 108.594391,55.351990 
	C101.007820,55.869480 93.695549,56.368263 86.383278,56.867043 
	C86.322723,56.666302 86.262169,56.465557 86.201614,56.264816 
	C87.035683,55.899048 87.869743,55.533279 89.086166,55.056427 
z"/>
<path fill="#E4E5E7" opacity="1.000000" stroke="none" 
	d="
M117.870087,36.969627 
	C119.607430,49.905079 121.090637,62.839188 122.622604,76.198425 
	C114.412933,74.940559 107.096527,73.819557 99.780113,72.698555 
	C99.770287,72.528442 99.760460,72.358330 99.750633,72.188217 
	C105.041962,72.188217 110.333298,72.188217 115.624634,72.188217 
	C115.677200,71.605858 115.729767,71.023506 115.782333,70.441147 
	C107.990692,69.382797 100.199051,68.324448 92.407402,67.266106 
	C92.385254,67.135742 92.363098,67.005379 92.340950,66.875015 
	C99.425888,66.875015 106.510818,66.875015 114.588371,66.875015 
	C112.703255,65.731293 111.611954,65.069191 109.885162,64.021530 
	C113.032112,64.021530 115.424370,64.021530 118.178101,64.021530 
	C117.764587,55.307281 117.349655,46.563114 117.021393,37.403435 
	C117.277367,36.981377 117.446663,36.974831 117.870087,36.969627 
z"/>
<path fill="#27394A" opacity="1.000000" stroke="none" 
	d="
M99.389908,49.635197 
	C88.796791,50.842770 80.072296,55.248817 71.970192,62.779182 
	C74.940079,53.129021 88.880028,46.099148 101.093842,47.216370 
	C101.742691,47.854752 102.391541,48.493134 103.040390,49.131512 
	C101.955948,49.277966 100.871498,49.424416 99.389908,49.635197 
z"/>
<path fill="#263849" opacity="1.000000" stroke="none" 
	d="
M57.965309,53.980995 
	C60.313141,56.438332 62.373421,58.677410 64.433708,60.916492 
	C64.128296,61.323071 63.822880,61.729652 63.517467,62.136234 
	C55.223671,54.303761 45.085468,50.495506 34.105988,48.522816 
	C39.767479,45.686527 47.797516,47.694908 57.965309,53.980995 
z"/>
<path fill="#223445" opacity="1.000000" stroke="none" 
	d="
M75.862518,44.075695 
	C75.505424,43.411682 75.108696,42.165539 75.512070,41.798363 
	C82.763718,35.197441 91.421997,32.694408 100.987862,32.997383 
	C101.248192,33.506645 101.508522,34.015903 101.768845,34.525162 
	C100.526817,35.149967 99.321487,36.221020 98.036766,36.326683 
	C90.082161,36.980892 82.739632,39.252319 75.862518,44.075695 
z"/>
<path fill="#1F3245" opacity="1.000000" stroke="none" 
	d="
M35.519478,39.900581 
	C45.558147,40.186230 54.291138,42.675724 61.312325,49.954094 
	C60.645237,50.476280 60.288151,50.879185 60.181938,50.821350 
	C52.588112,46.686329 44.689526,43.567043 35.919407,43.033234 
	C35.585831,43.012928 35.370430,41.051018 35.519478,39.900581 
z"/>
<path fill="#1C3042" opacity="1.000000" stroke="none" 
	d="
M100.553032,43.022461 
	C91.839600,45.319931 83.513557,47.489677 75.487137,49.581345 
	C75.505501,49.554188 75.902946,48.555992 76.629471,47.956795 
	C82.856674,42.820950 90.150879,40.411358 98.109001,39.841335 
	C100.200020,39.691559 102.510689,39.551247 100.553032,43.022461 
z"/>
<path fill="#213344" opacity="1.000000" stroke="none" 
	d="
M57.151894,38.982533 
	C58.512505,40.500729 59.546997,41.819584 61.161800,43.878277 
	C55.553177,41.519661 50.987831,39.834633 46.641819,37.702534 
	C42.716469,35.776817 37.339626,38.433586 33.122849,33.269245 
	C42.556980,32.380192 49.923691,34.559429 57.151894,38.982533 
z"/>
<path fill="#213445" opacity="1.000000" stroke="none" 
	d="
M55.902912,27.023582 
	C49.506088,25.315859 43.430466,23.840622 37.404133,22.185886 
	C36.282429,21.877882 35.358849,20.848362 34.343830,20.151833 
	C35.404137,19.697054 36.480392,18.817026 37.522167,18.856106 
	C44.598083,19.121531 51.336178,20.677872 57.188847,24.929306 
	C58.415241,25.820173 59.448185,26.977356 60.570271,28.011818 
	C60.324749,28.353218 60.079227,28.694616 59.833702,29.036016 
	C58.636181,28.422043 57.438656,27.808067 55.902912,27.023582 
z"/>
<path fill="#1B2F41" opacity="1.000000" stroke="none" 
	d="
M76.123100,34.346272 
	C82.336952,28.377913 90.077721,26.323954 98.366203,25.858011 
	C99.363342,25.801960 100.419647,26.798512 101.448532,27.307192 
	C100.534035,27.917038 99.699043,28.795256 98.692245,29.093506 
	C91.768539,31.144552 84.808922,33.074318 77.248985,34.875946 
	C76.465782,34.587940 76.294441,34.467106 76.123100,34.346272 
z"/>
<path fill="#213143" opacity="1.000000" stroke="none" 
	d="
M39.889153,25.885410 
	C46.787209,27.036425 53.155849,28.368189 57.739761,34.220730 
	C56.489742,33.911785 55.233749,33.625000 53.990749,33.290001 
	C49.038799,31.955420 44.076435,30.655930 39.149624,29.233637 
	C37.503803,28.758512 35.952721,27.955223 34.358334,27.301949 
	C36.055557,26.819817 37.752785,26.337687 39.889153,25.885410 
z"/>
<path fill="#203446" opacity="1.000000" stroke="none" 
	d="
M80.701454,23.645592 
	C86.730263,21.880941 92.416489,20.216621 98.178482,18.878647 
	C99.112816,18.661688 100.383270,19.892263 101.498360,20.453747 
	C100.545609,21.052414 99.666374,21.929398 98.627937,22.203701 
	C92.743538,23.758066 86.824638,25.183056 80.908432,26.614716 
	C79.732086,26.899384 78.516396,27.021481 77.007454,26.439714 
	C78.132988,25.577950 79.258522,24.716183 80.701454,23.645592 
z"/>
<path fill="#E5E6E8" opacity="1.000000" stroke="none" 
	d="
M18.779678,30.966862 
	C18.949045,34.860149 18.949045,38.727062 18.949045,42.593975 
	C18.406197,42.572575 17.863348,42.551178 17.320499,42.529778 
	C17.562038,38.962654 17.803577,35.395527 18.157150,31.401413 
	C18.269182,30.974426 18.610313,30.940489 18.779678,30.966862 
z"/>
<path fill="#1B2F41" opacity="1.000000" stroke="none" 
	d="
M76.875122,34.914333 
	C76.638817,35.698696 76.164497,36.277496 74.761604,37.989445 
	C75.257797,35.993187 75.422516,35.330482 75.855171,34.507027 
	C76.294441,34.467106 76.465782,34.587940 76.875122,34.914333 
z"/>
<path fill="#E5E6E8" opacity="1.000000" stroke="none" 
	d="
M15.968222,54.835476 
	C16.384830,50.687363 16.765591,46.989857 17.146349,43.292347 
	C17.753483,43.318962 18.360615,43.345581 18.967747,43.372196 
	C18.571833,50.198044 18.175919,57.023891 17.763630,64.132050 
	C20.519505,64.132050 22.962969,64.132050 26.567684,64.132050 
	C24.092205,65.215050 22.729790,65.811096 20.768873,66.668983 
	C28.539444,66.668983 35.532497,66.668983 42.525551,66.668983 
	C42.536129,66.885498 42.546707,67.102013 42.557285,67.318520 
	C34.763676,68.385582 26.970066,69.452644 19.176455,70.519707 
	C19.199802,71.026894 19.223150,71.534073 19.246498,72.041260 
	C24.660341,72.041260 30.074184,72.041260 35.488029,72.041260 
	C35.518089,72.284943 35.548153,72.528618 35.578213,72.772301 
	C28.506390,73.905907 21.434566,75.039513 13.472794,76.315781 
	C14.326962,69.012527 15.129666,62.149303 15.968222,54.835476 
z"/>
</svg>